# xmcd CD database file generated by Grip 3.0.7
# 
# Track frame offsets:
#       220
#       16205
#       31600
#       55585
#       69172
#       72590
#       92640
#       107867
#       126375
# 
# Disc length: 1952 seconds
# 
# Revision: 2
# Processed by: cddbd v1.5.1PL0 Copyright (c) Steve Scherf et al.
# Submitted via: Grip 3.0.7
# 
DISCID=70079e09
DTITLE=Rory Block - I've Got A Rock in My Sock!
DYEAR=1989
DGENRE=Blues
TTITLE0=Send the Man Back Home
TTITLE1=Moon's Goin' Down
TTITLE2=Gypsie Boy
TTITLE3=I've Got A Rock in My Sock
TTITLE4=Foreign Lander
TTITLE5=Goin' Back To The Country
TTITLE6=M&O Blues
TTITLE7=Lovin' Whiskey
TTITLE8=Highland Overture
EXTD=
EXTT0=
EXTT1=
EXTT2=
EXTT3=
EXTT4=
EXTT5=
EXTT6=
EXTT7=
EXTT8=
PLAYORDER=
